<mxfile host="app.diagrams.net" modified="2024-01-22T07:50:51.622Z" agent="Mozilla/5.0 (Macintosh; Intel Mac OS X 10_15_7) AppleWebKit/537.36 (KHTML, like Gecko) Chrome/120.0.0.0 Safari/537.36" version="22.1.21" etag="3puWH59f2luu55cS6dsd" type="github">
  <diagram name="페이지-1" id="Z4-LC-h0UnFOgjV7GA54">
    <mxGraphModel>
      <root>
        <mxCell id="0" />
        <mxCell id="1" parent="0" />
      </root>
    </mxGraphModel>
  </diagram>
</mxfile>
